# xmcd
# 
# Track frame offsets:
#     150
#     14611
#     28434
#     40839
#     57420
#     69780
#     85787
#     100585
#     115608
#     131185
# 
# Disc length: 1995
# 
# Revision: 2
# Processed by: cddbd v1.5.2PL0 Copyright (c) Steve Scherf et al.
# Submitted via: fre:ac v1.0.31
# 
DISCID=8007c90a
DTITLE=Straight Shooter - Straight Shooter
DYEAR=1999
DGENRE=Country
TTITLE0=The Beer Song
TTITLE1=Walking Her Home
TTITLE2=Let's Make Love
TTITLE3=Lonely Girl
TTITLE4=Bring It On Home
TTITLE5=Wine, Wine
TTITLE6=Crying
TTITLE7=Sunset Serenade
TTITLE8=Cowboy Rule
TTITLE9=Lonely Mind
EXTD=
EXTT0=
EXTT1=
EXTT2=
EXTT3=
EXTT4=
EXTT5=
EXTT6=
EXTT7=
EXTT8=
EXTT9=
PLAYORDER=
